<svg width="44" height="44" viewBox="0 0 44 44" fill="none" xmlns="http://www.w3.org/2000/svg">
<circle cx="22" cy="22" r="21" fill="#F4F6FB" stroke="#60579E" stroke-width="2"/>
<path fill-rule="evenodd" clip-rule="evenodd" d="M20.8941 17.5295L20.5838 19.3582L22.0635 19.2524C25.7394 18.9964 28.4364 21.6767 28.4364 24.9937C28.4364 26.6731 27.6003 28.2467 26.1215 29.3313C24.6887 30.3519 22.6602 30.6719 20.8711 30.6719C18.8177 30.6719 16.7413 30.2247 15 29.2255L15.6915 25.2915C17.0755 26.3974 18.8425 27.1416 20.7035 27.1416C22.1832 27.1416 23.5681 26.1849 23.5681 24.7812C23.5681 22.8458 21.4908 22.0377 19.6289 22.0377C18.4365 22.0377 17.2661 22.251 16.1925 22.6973L17.768 14H27.1233V17.5295H20.8941Z" fill="#60579E"/>
</svg>
